<?xml version="1.0" standalone="no"?><!DOCTYPE svg PUBLIC "-//W3C//DTD SVG 1.1//EN" "http://www.w3.org/Graphics/SVG/1.1/DTD/svg11.dtd"><svg t="1668778239800" class="icon" viewBox="0 0 1024 1024" version="1.1" xmlns="http://www.w3.org/2000/svg" p-id="10001" xmlns:xlink="http://www.w3.org/1999/xlink" width="32" height="32"><path d="M520.533 64L170.667 241.067V601.6l349.866 177.067L870.4 601.6V241.067L520.533 64z m283.734 497.067L518.4 706.133 426.667 659.2l157.866-89.6c8.534 4.267 17.067 6.4 25.6 6.4 32 0 57.6-25.6 57.6-57.6s-25.6-57.6-57.6-57.6c-29.866 0-53.333 21.333-55.466 49.067L356.267 620.8l-123.734-61.867V279.467L518.4 134.4l102.4 51.2-164.267 91.733c-8.533-4.266-17.066-6.4-25.6-6.4-32 0-57.6 25.6-57.6 57.6s25.6 57.6 57.6 57.6c29.867 0 53.334-21.333 55.467-49.066L689.067 224l113.066 57.6v279.467h2.134z" fill="#2c2c2c" p-id="10002"></path><path d="M522.667 883.2l-352-172.8v70.4l352 174.933L870.4 780.8v-70.4z" fill="#2c2c2c" p-id="10003"></path></svg>